<svg xmlns="http://www.w3.org/2000/svg" width="1024" height="1024" viewBox="0 0 1024 1024" fill="none">
  <defs>
    <linearGradient id="bg" x1="128" y1="112" x2="900" y2="920" gradientUnits="userSpaceOnUse">
      <stop offset="0" stop-color="#11161c"/>
      <stop offset="0.56" stop-color="#0d0f12"/>
      <stop offset="1" stop-color="#111a20"/>
    </linearGradient>
    <linearGradient id="edge" x1="168" y1="142" x2="856" y2="874" gradientUnits="userSpaceOnUse">
      <stop offset="0" stop-color="#7ee787"/>
      <stop offset="1" stop-color="#57b6ff"/>
    </linearGradient>
    <linearGradient id="panel" x1="204" y1="236" x2="790" y2="798" gradientUnits="userSpaceOnUse">
      <stop offset="0" stop-color="#151b22"/>
      <stop offset="1" stop-color="#0a0c0f"/>
    </linearGradient>
  </defs>

  <rect x="82" y="82" width="860" height="860" rx="196" fill="url(#bg)"/>
  <rect x="82" y="82" width="860" height="860" rx="196" stroke="url(#edge)" stroke-width="28" opacity="0.82"/>
  <rect x="144" y="144" width="736" height="736" rx="148" stroke="#26303a" stroke-width="10" opacity="0.7"/>

  <path d="M336 384C406 384 424 454 492 510" stroke="#7ee787" stroke-width="22" stroke-linecap="round" opacity="0.5"/>
  <path d="M690 362C622 386 602 462 532 510" stroke="#57b6ff" stroke-width="22" stroke-linecap="round" opacity="0.5"/>
  <path d="M356 682C424 666 448 594 496 540" stroke="#7ee787" stroke-width="22" stroke-linecap="round" opacity="0.42"/>
  <path d="M688 682C616 666 590 594 528 540" stroke="#57b6ff" stroke-width="22" stroke-linecap="round" opacity="0.42"/>

  <rect x="158" y="254" width="370" height="278" rx="46" fill="#10161d" stroke="#26303a" stroke-width="14"/>
  <path d="M158 330H528" stroke="#26303a" stroke-width="14"/>
  <circle cx="218" cy="292" r="13" fill="#7ee787" opacity="0.9"/>
  <circle cx="260" cy="292" r="13" fill="#57b6ff" opacity="0.82"/>
  <path d="M236 410H370" stroke="#d6deeb" stroke-width="22" stroke-linecap="round" opacity="0.32"/>
  <path d="M236 464H440" stroke="#57b6ff" stroke-width="20" stroke-linecap="round" opacity="0.42"/>

  <rect x="496" y="220" width="370" height="278" rx="46" fill="#101923" stroke="#26303a" stroke-width="14"/>
  <path d="M496 296H866" stroke="#26303a" stroke-width="14"/>
  <circle cx="556" cy="258" r="13" fill="#57b6ff" opacity="0.9"/>
  <circle cx="598" cy="258" r="13" fill="#7ee787" opacity="0.82"/>
  <path d="M584 376H724" stroke="#d6deeb" stroke-width="22" stroke-linecap="round" opacity="0.3"/>
  <path d="M584 430H784" stroke="#7ee787" stroke-width="20" stroke-linecap="round" opacity="0.42"/>

  <rect x="222" y="438" width="580" height="360" rx="58" fill="url(#panel)" stroke="#7ee787" stroke-width="18"/>
  <path d="M222 526H802" stroke="#26303a" stroke-width="16"/>
  <circle cx="292" cy="482" r="15" fill="#7ee787"/>
  <circle cx="340" cy="482" r="15" fill="#57b6ff"/>
  <circle cx="388" cy="482" r="15" fill="#d6deeb" opacity="0.58"/>

  <path d="M306 610L370 660L306 710" stroke="#7ee787" stroke-width="32" stroke-linecap="round" stroke-linejoin="round"/>
  <path d="M424 622H604" stroke="#d6deeb" stroke-width="26" stroke-linecap="round" opacity="0.28"/>
  <path d="M424 688H650" stroke="#57b6ff" stroke-width="26" stroke-linecap="round" opacity="0.74"/>
  <rect x="678" y="675" width="58" height="40" rx="10" fill="#7ee787"/>

  <circle cx="512" cy="526" r="70" fill="#0d0f12" stroke="#57b6ff" stroke-width="16"/>
  <circle cx="512" cy="526" r="18" fill="#7ee787"/>
  <circle cx="472" cy="504" r="11" fill="#57b6ff"/>
  <circle cx="552" cy="504" r="11" fill="#57b6ff"/>
  <circle cx="512" cy="574" r="11" fill="#57b6ff"/>
  <path d="M472 504L512 526L552 504M512 526V574" stroke="#57b6ff" stroke-width="10" stroke-linecap="round" stroke-linejoin="round"/>
</svg>
